<?xml version="1.0" encoding="UTF-8"?>
<svg width="200px" height="23px" viewBox="0 0 200 23" xmlns="http://www.w3.org/2000/svg" xmlns:xlink="http://www.w3.org/1999/xlink" version="1.1">
 <!-- Generated by Pixelmator Pro 2.0.8 -->
 <path id="B" d="M7.843 2.104 L18.195 2.104 C19.92 2.104 21.245 2.532 22.168 3.386 23.092 4.241 23.554 5.299 23.554 6.56 23.554 7.618 23.224 8.525 22.565 9.282 22.125 9.787 21.483 10.186 20.636 10.479 21.922 10.788 22.868 11.319 23.474 12.072 24.081 12.824 24.384 13.77 24.384 14.91 24.384 15.837 24.168 16.672 23.737 17.412 23.306 18.153 22.715 18.739 21.967 19.17 21.503 19.438 20.803 19.634 19.867 19.756 18.622 19.919 17.796 20 17.389 20 L7.843 20 Z M13.422 9.124 L15.827 9.124 C16.689 9.124 17.289 8.975 17.627 8.678 17.965 8.381 18.134 7.952 18.134 7.39 18.134 6.869 17.965 6.462 17.627 6.169 17.289 5.876 16.702 5.73 15.863 5.73 L13.422 5.73 Z M13.422 16.155 L16.242 16.155 C17.194 16.155 17.865 15.986 18.256 15.648 18.646 15.31 18.842 14.857 18.842 14.287 18.842 13.758 18.649 13.333 18.262 13.011 17.875 12.69 17.198 12.529 16.229 12.529 L13.422 12.529 Z" fill="#ffffff" fill-opacity="1" stroke="none"/>
 <path id="O" d="M31.135 11.064 C31.135 8.143 31.949 5.868 33.577 4.241 35.204 2.613 37.471 1.799 40.376 1.799 43.355 1.799 45.649 2.599 47.261 4.198 48.872 5.797 49.678 8.037 49.678 10.918 49.678 13.009 49.326 14.725 48.622 16.063 47.918 17.402 46.901 18.444 45.57 19.188 44.239 19.933 42.581 20.305 40.596 20.305 38.577 20.305 36.907 19.984 35.585 19.341 34.262 18.698 33.19 17.681 32.368 16.289 31.546 14.897 31.135 13.156 31.135 11.064 Z M36.665 11.089 C36.665 12.896 37.001 14.194 37.672 14.983 38.344 15.772 39.257 16.167 40.413 16.167 41.601 16.167 42.52 15.78 43.171 15.007 43.822 14.234 44.148 12.847 44.148 10.845 44.148 9.16 43.808 7.929 43.129 7.152 42.449 6.375 41.528 5.986 40.364 5.986 39.249 5.986 38.354 6.381 37.678 7.17 37.003 7.96 36.665 9.266 36.665 11.089 Z" fill="#ffffff" fill-opacity="1" stroke="none"/>
 <path id="N" d="M60.868 2.104 L66.031 2.104 72.77 12.004 72.77 2.104 77.982 2.104 77.982 20 72.77 20 66.068 10.173 66.068 20 60.868 20 Z" fill="#ffffff" fill-opacity="1" stroke="none"/>
 <path id="Z" d="M92.379 2.104 L108.029 2.104 108.029 5.681 97.995 16.155 108.395 16.155 108.395 20 91.415 20 91.415 16.289 101.339 5.925 92.379 5.925 Z" fill="#ffffff" fill-opacity="1" stroke="none"/>
 <path id="O-1" d="M121.135 11.064 C121.135 8.143 121.949 5.868 123.577 4.241 125.204 2.613 127.471 1.799 130.376 1.799 133.355 1.799 135.649 2.599 137.261 4.198 138.872 5.797 139.678 8.037 139.678 10.918 139.678 13.009 139.326 14.725 138.622 16.063 137.918 17.402 136.901 18.444 135.57 19.188 134.24 19.933 132.581 20.305 130.596 20.305 128.577 20.305 126.907 19.984 125.585 19.341 124.262 18.698 123.19 17.681 122.368 16.289 121.546 14.897 121.135 13.156 121.135 11.064 Z M126.665 11.089 C126.665 12.896 127.001 14.194 127.672 14.983 128.344 15.772 129.257 16.167 130.413 16.167 131.601 16.167 132.52 15.78 133.171 15.007 133.822 14.234 134.148 12.847 134.148 10.845 134.148 9.16 133.808 7.929 133.129 7.152 132.449 6.375 131.528 5.986 130.364 5.986 129.249 5.986 128.354 6.381 127.678 7.17 127.003 7.96 126.665 9.266 126.665 11.089 Z" fill="#ffffff" fill-opacity="1" stroke="none"/>
 <path id="S" d="M149.867 14.08 L155.128 13.75 C155.242 14.604 155.474 15.256 155.824 15.703 156.393 16.427 157.207 16.79 158.265 16.79 159.055 16.79 159.663 16.604 160.09 16.234 160.517 15.864 160.731 15.435 160.731 14.946 160.731 14.482 160.528 14.067 160.121 13.701 159.714 13.335 158.77 12.989 157.289 12.664 154.863 12.118 153.134 11.394 152.101 10.491 151.059 9.587 150.538 8.436 150.538 7.036 150.538 6.117 150.805 5.248 151.338 4.43 151.871 3.612 152.672 2.969 153.742 2.501 154.813 2.033 156.279 1.799 158.143 1.799 160.43 1.799 162.173 2.225 163.374 3.075 164.574 3.925 165.288 5.278 165.516 7.134 L160.304 7.439 C160.165 6.633 159.874 6.047 159.431 5.681 158.987 5.315 158.375 5.132 157.594 5.132 156.951 5.132 156.467 5.268 156.141 5.541 155.816 5.813 155.653 6.145 155.653 6.536 155.653 6.82 155.787 7.077 156.056 7.305 156.316 7.541 156.935 7.76 157.911 7.964 160.328 8.485 162.059 9.012 163.105 9.545 164.151 10.078 164.912 10.739 165.388 11.528 165.864 12.318 166.102 13.201 166.102 14.177 166.102 15.325 165.785 16.383 165.15 17.351 164.515 18.32 163.628 19.054 162.489 19.554 161.349 20.055 159.913 20.305 158.18 20.305 155.136 20.305 153.028 19.719 151.856 18.547 150.685 17.375 150.021 15.886 149.867 14.08 Z" fill="#ffffff" fill-opacity="1" stroke="none"/>
</svg>
